<svg width="0" height="0" class="hidden">
  <symbol fill="none" xmlns="http://www.w3.org/2000/svg" viewBox="0 0 24 24" id="icon-minus">
    <path d="M5 11h14v2H5v-2z" fill="#757575"></path>
  </symbol>
  <symbol fill="none" xmlns="http://www.w3.org/2000/svg" viewBox="0 0 48 48" id="icon-close">
    <path d="M28.192 18.344l-4.243 4.242-4.242-4.242-1.414 1.414L22.535 24l-4.242 4.242 1.414 1.414 4.242-4.242 4.243 4.242 1.414-1.414L25.364 24l4.242-4.242-1.414-1.414z" fill="#EB1131"></path>
  </symbol>
  <symbol fill="none" xmlns="http://www.w3.org/2000/svg" viewBox="0 0 24 24" id="icon-check">
    <path d="M10 15.586l-3.293-3.293-1.414 1.414L10 18.414l9.707-9.707-1.414-1.414L10 15.586z" fill="#F3556C"></path>
  </symbol>
  <symbol fill="none" xmlns="http://www.w3.org/2000/svg" viewBox="0 0 48 48" id="icon-arrow">
    <path d="M22.061 31.061L29.121 24l-7.06-7.061-2.122 2.122L24.879 24l-4.94 4.939 2.122 2.122z" fill="#EB1131"></path>
  </symbol>
  <symbol fill="none" xmlns="http://www.w3.org/2000/svg" viewBox="0 0 48 48" id="icon11">
    <path d="M34.537 19.448a1.33 1.33 0 00-.261-.39l-8-8a1.327 1.327 0 00-.39-.262c-.04-.019-.083-.03-.126-.044a1.316 1.316 0 00-.345-.068c-.028-.003-.054-.017-.082-.017H16a2.67 2.67 0 00-2.667 2.666v21.334A2.67 2.67 0 0016 37.333h16a2.67 2.67 0 002.667-2.666V20c0-.028-.015-.053-.018-.083a1.273 1.273 0 00-.068-.345c-.013-.043-.025-.084-.044-.124zm-4.422-.781h-3.448v-3.448l3.448 3.448zM16 34.667V13.333h8V20c0 .737.596 1.333 1.333 1.333H32l.003 13.334H16z" fill="#EB1131"></path>
    <path d="M18.667 24h10.666v2.667H18.667V24zm0 5.333h10.666V32H18.667v-2.667zm0-10.666h2.666v2.666h-2.666v-2.666z" fill="#EB1131"></path>
  </symbol>
  <symbol fill="none" xmlns="http://www.w3.org/2000/svg" viewBox="0 0 48 48" id="icon10">
    <path d="M18.667 24C21.707 24 24 21.707 24 18.667s-2.293-5.334-5.333-5.334-5.334 2.294-5.334 5.334c0 3.04 2.294 5.333 5.334 5.333zm0-8c1.57 0 2.666 1.096 2.666 2.667 0 1.57-1.096 2.666-2.666 2.666-1.571 0-2.667-1.096-2.667-2.666C16 17.096 17.096 16 18.667 16zM20 25.333h-2.667A6.674 6.674 0 0010.667 32v1.333h2.666V32c0-2.205 1.795-4 4-4H20c2.205 0 4 1.795 4 4v1.333h2.667V32A6.674 6.674 0 0020 25.333zm12.485-13.818L30.6 13.4a9.283 9.283 0 012.733 6.6 9.283 9.283 0 01-2.733 6.6l1.885 1.885A11.925 11.925 0 0036 20c0-3.204-1.248-6.217-3.515-8.485z" fill="#EB1131"></path>
    <path d="M28.713 15.285l-1.885 1.888A3.963 3.963 0 0128 20c0 1.07-.416 2.073-1.172 2.827l1.885 1.888A6.623 6.623 0 0030.667 20a6.623 6.623 0 00-1.954-4.715z" fill="#EB1131"></path>
  </symbol>
  <symbol fill="none" xmlns="http://www.w3.org/2000/svg" viewBox="0 0 48 48" id="icon9">
    <path d="M17.333 17.333h13.334V20H17.333v-2.667zm0 5.334h9.334v2.666h-9.334v-2.666z" fill="#EB1131"></path>
    <path d="M34.667 10.667H13.333a2.67 2.67 0 00-2.666 2.666v24L17.777 32h16.89a2.67 2.67 0 002.666-2.667v-16a2.67 2.67 0 00-2.666-2.666zm0 18.666H16.889L13.333 32V13.333h21.334v16z" fill="#EB1131"></path>
  </symbol>
  <symbol fill="none" xmlns="http://www.w3.org/2000/svg" viewBox="0 0 48 48" id="icon8">
    <path d="M30.333 10.667H17a2.67 2.67 0 00-2.667 2.666v21.334A2.67 2.67 0 0017 37.333h13.333A2.67 2.67 0 0033 34.667V13.333a2.67 2.67 0 00-2.667-2.666zM17 34.667V13.333h13.333l.003 21.334H17z" fill="#EB1131"></path>
    <path d="M23.667 33.333a1.333 1.333 0 100-2.666 1.333 1.333 0 000 2.666z" fill="#EB1131"></path>
  </symbol>
  <symbol fill="none" xmlns="http://www.w3.org/2000/svg" viewBox="0 0 48 48" id="icon7">
    <path d="M34.667 12H13.333a2.67 2.67 0 00-2.666 2.667v18.666A2.67 2.67 0 0013.333 36h21.334a2.67 2.67 0 002.666-2.667V14.667A2.67 2.67 0 0034.667 12zm.001 8c-.001 0-.001 0 0 0h-.62l-3.556-5.333h4.175L34.668 20zm-13.953 0l-3.556-5.333h3.461L24.176 20h-3.461zm6.666 0l-3.556-5.333h3.462L30.843 20H27.38zm-14.048-5.333h.62L17.51 20h-4.176v-5.333zm0 18.666V22.667h21.334l.002 10.666H13.333z" fill="#EB1131"></path>
    <path d="M21.333 32l7.334-4-7.334-4v8z" fill="#EB1131"></path>
  </symbol>
  <symbol fill="none" xmlns="http://www.w3.org/2000/svg" viewBox="0 0 97 96" id="icon6">
    <g clip-path="url(#clip0)">
      <path fill-rule="evenodd" clip-rule="evenodd" d="M80.88 6.458c27.033 16.213 16.204 77.625-4.227 88.118-9.694 4.978-20.768-4.626-31.763-5.488-9.592-.751-19.7 5.139-28.154.793-11.943-6.138-21.053-26.95-12.18-55.228C13.432 6.375 53.847-9.755 80.88 6.458z" fill="#FEE6EA"></path>
      <path d="M42.333 46.667H45v2.666h-2.667v-2.666zm0 5.333H45v2.667h-2.667V52zm5.334-5.333h2.666v2.666h-2.666v-2.666zm0 5.333h2.666v2.667h-2.666V52zM53 46.667h2.667v2.666H53v-2.666zM53 52h2.667v2.667H53V52z" fill="#EB1131"></path>
      <path d="M39.667 61.333h18.666A2.67 2.67 0 0061 58.667V40a2.67 2.67 0 00-2.667-2.667h-2.666v-2.666H53v2.666h-8v-2.666h-2.667v2.666h-2.666A2.67 2.67 0 0037 40v18.667a2.67 2.67 0 002.667 2.666zm18.666-18.666l.002 16H39.667v-16h18.666z" fill="#EB1131"></path>
    </g>
    <defs>
      <clipPath id="clip0">
        <path fill="#fff" transform="translate(.667)" d="M0 0h96v96H0z"></path>
      </clipPath>
    </defs>
  </symbol>
  <symbol fill="none" xmlns="http://www.w3.org/2000/svg" viewBox="0 0 97 96" id="icon5">
    <g clip-path="url(#clip0)">
      <path fill-rule="evenodd" clip-rule="evenodd" d="M44.624.54C57.457 2.725 60.085 17.083 69.49 24.603c7.424 5.937 20.683 7.05 24.106 15.095C102.556 60.757 85.92 96 52.81 96S-3.473 69.919.428 35.326C2.922 13.214 22.494-3.23 44.624.54z" fill="#FEE6EA"></path>
      <path d="M48 34.667c-7.352 0-13.333 5.981-13.333 13.333S40.648 61.333 48 61.333 61.333 55.352 61.333 48 55.353 34.667 48 34.667zm0 24c-5.881 0-10.667-4.786-10.667-10.667S42.12 37.333 48 37.333 58.667 42.12 58.667 48 53.88 58.667 48 58.667z" fill="#EB1131"></path>
      <path d="M49.333 41.333h-2.666v7.219l4.39 4.39 1.886-1.885-3.61-3.609v-6.115z" fill="#EB1131"></path>
    </g>
    <defs>
      <clipPath id="clip0">
        <path fill="#fff" transform="translate(.333)" d="M0 0h96v96H0z"></path>
      </clipPath>
    </defs>
  </symbol>
  <symbol fill="none" xmlns="http://www.w3.org/2000/svg" viewBox="0 0 96 96" id="icon4">
    <g clip-path="url(#clip0)">
      <path fill-rule="evenodd" clip-rule="evenodd" d="M45.506.307c-9.46-1.152-19.762.9-27.213 6.8C-15.573 33.924-.072 98.55 45.506 95.922c27.397-1.58 59.527-33.2 48.136-64.157-3.785-10.287-13.169-11.144-22.956-16.198C62.85 11.52 54.273 1.374 45.506.307z" fill="#FEE6EA"></path>
      <path d="M58.667 48v-2.276c0-5.923-4.639-10.881-10.34-11.053-2.939-.068-5.668.98-7.755 3.008a10.578 10.578 0 00-3.239 7.654V48a2.67 2.67 0 00-2.666 2.667V56a2.67 2.67 0 002.666 2.667H40V45.333c0-2.182.861-4.221 2.428-5.741a7.97 7.97 0 015.817-2.255c4.278.128 7.755 3.89 7.755 8.387v12.943h2.667A2.67 2.67 0 0061.333 56v-5.333A2.67 2.67 0 0058.667 48z" fill="#EB1131"></path>
      <path d="M41.333 48H44v10.667h-2.667V48zM52 48h2.667v10.667H52V48z" fill="#EB1131"></path>
    </g>
    <defs>
      <clipPath id="clip0">
        <path fill="#fff" d="M0 0h96v96H0z"></path>
      </clipPath>
    </defs>
  </symbol>
  <symbol fill="none" xmlns="http://www.w3.org/2000/svg" viewBox="0 0 97 96" id="icon3">
    <g clip-path="url(#clip0)">
      <path fill-rule="evenodd" clip-rule="evenodd" d="M45.909 95.901c9.63-.726 16.025-9.828 24.101-15.326 8.637-5.88 20.556-8.173 24.789-17.957C99.126 52.616 96.55 40.38 91.59 30.7c-4.536-8.848-14.458-12.167-22.348-17.941C61.507 7.099 55.367-.271 45.91.008c-9.441.277-25.942 11.47-33.14 17.821-27.092 23.9-3.786 80.858 33.14 78.072z" fill="#FEE6EA"></path>
      <path d="M61 36h-9.333A3.974 3.974 0 0049 37.04 3.974 3.974 0 0046.333 36H37c-.737 0-1.333.597-1.333 1.333v20c0 .738.596 1.334 1.333 1.334h7.677c.702 0 1.39.285 1.886.781l1.494 1.495c.012.012.028.016.04.028.115.105.243.198.392.261h.003a1.327 1.327 0 001.016 0h.003a1.37 1.37 0 00.392-.261c.012-.012.028-.016.04-.028l1.494-1.495a2.687 2.687 0 011.886-.781H61c.737 0 1.333-.596 1.333-1.334v-20c0-.736-.596-1.333-1.333-1.333zM44.677 56h-6.344V38.667h8c.736 0 1.334.598 1.334 1.333v16.919a5.375 5.375 0 00-2.99-.919zm14.99 0h-6.344a5.375 5.375 0 00-2.99.919V40c0-.735.598-1.333 1.334-1.333h8V56z" fill="#EB1131"></path>
    </g>
    <defs>
      <clipPath id="clip0">
        <path fill="#fff" transform="translate(.667)" d="M0 0h96v96H0z"></path>
      </clipPath>
    </defs>
  </symbol>
  <symbol fill="none" xmlns="http://www.w3.org/2000/svg" viewBox="0 0 97 96" id="icon2">
    <g clip-path="url(#clip0)">
      <path fill-rule="evenodd" clip-rule="evenodd" d="M50.101.21c11.15-.772 23.026.363 31.92 7.17 15.593 11.932 16.087 48.398 11.347 58.327C82.99 87.445 43.085 105.173 21.76 90.801c-11.903-8.023-7.043-17.423-10.563-26.52C7.378 54.408-1.7 45.691.278 35.285 3.874 16.392 33.164 1.383 50.102.21z" fill="#FEE6EA"></path>
      <path d="M57.334 37.333h-4v-2.666h-2.667v2.666h-5.334v-2.666h-2.666v2.666h-4A2.67 2.67 0 0036 40v18.667a2.67 2.67 0 002.667 2.666h18.666A2.67 2.67 0 0060 58.667V40a2.67 2.67 0 00-2.666-2.667zM38.666 58.667V41.333h18.666V40l.003 18.667h-18.67z" fill="#EB1131"></path>
      <path d="M41.334 44h13.333v2.667H41.333V44zm0 5.333H48V52h-6.666v-2.667z" fill="#EB1131"></path>
    </g>
    <defs>
      <clipPath id="clip0">
        <path fill="#fff" transform="translate(.333)" d="M0 0h96v96H0z"></path>
      </clipPath>
    </defs>
  </symbol>
  <symbol fill="none" xmlns="http://www.w3.org/2000/svg" viewBox="0 0 96 96" id="icon1">
    <path fill-rule="evenodd" clip-rule="evenodd" d="M74.891 6.091c7.499 7.43 6.563 22.123 10.041 32.682 3.742 11.358 12.685 18.69 10.814 30.623C92.646 89.161 61.919 96 45.929 96 31.312 96 3.428 87.145.237 67.882-3.979 42.427 49.026-19.542 74.891 6.091z" fill="#FEE6EA"></path>
    <path d="M59.916 42.04c-2.28-4.548-6.845-7.373-11.916-7.373-7.352 0-13.333 5.981-13.333 13.333S40.648 61.333 48 61.333c5.07 0 9.636-2.825 11.916-7.373a1.334 1.334 0 00-.53-1.755L52.024 48l7.362-4.204a1.335 1.335 0 00.531-1.756zm-11.244 4.803a1.332 1.332 0 000 2.314l8.23 4.7A10.598 10.598 0 0148 58.667c-5.881 0-10.667-4.786-10.667-10.667S42.12 37.333 48 37.333a10.6 10.6 0 018.903 4.808l-8.231 4.702z" fill="#EB1131"></path>
    <path d="M47.333 44a2 2 0 100-4 2 2 0 000 4z" fill="#EB1131"></path>
  </symbol>
</svg>