<svg width="48" height="48" viewBox="0 0 48 48" fill="none" xmlns="http://www.w3.org/2000/svg">
<path d="M34.6666 12H13.3333C11.8626 12 10.6666 13.196 10.6666 14.6667V22.6667V33.3333C10.6666 34.804 11.8626 36 13.3333 36H34.6666C36.1373 36 37.3333 34.804 37.3333 33.3333V22.6667V14.6667C37.3333 13.196 36.1373 12 34.6666 12ZM34.668 20C34.6666 20 34.6666 20 34.668 20H34.048L30.492 14.6667H34.6666L34.668 20ZM20.7146 20L17.1586 14.6667H20.62L24.176 20H20.7146ZM27.3813 20L23.8253 14.6667H27.2866L30.8426 20H27.3813ZM13.3333 14.6667H13.9533L17.5093 20H13.3333V14.6667ZM13.3333 33.3333V22.6667H34.6666L34.6693 33.3333H13.3333Z" fill="#EB1131"/>
<path d="M21.3334 32L28.6667 28L21.3334 24V32Z" fill="#EB1131"/>
</svg>
