<svg width="96" height="96" viewBox="0 0 96 96" fill="none" xmlns="http://www.w3.org/2000/svg">
<path fill-rule="evenodd" clip-rule="evenodd" d="M74.8914 6.091C82.3896 13.5216 81.4535 28.2136 84.932 38.7729C88.6737 50.1311 97.6169 57.4629 95.7457 69.3962C92.6464 89.1611 61.9188 96 45.9291 96C31.312 96 3.42775 87.1454 0.237379 67.8824C-3.97866 42.4267 49.0258 -19.5416 74.8914 6.091Z" fill="#FEE6EA"/>
<path d="M59.916 42.04C57.636 37.492 53.0706 34.6666 48 34.6666C40.648 34.6666 34.6666 40.648 34.6666 48C34.6666 55.352 40.648 61.3333 48 61.3333C53.0706 61.3333 57.636 58.508 59.916 53.96C60.2333 53.3266 60 52.556 59.3866 52.2053L52.0226 48L59.3853 43.796C60 43.444 60.2333 42.6733 59.916 42.04ZM48.672 46.8426C48.256 47.08 48 47.5213 48 48C48 48.4786 48.256 48.92 48.672 49.1573L56.9026 53.8573C54.94 56.852 51.632 58.6666 48 58.6666C42.1186 58.6666 37.3333 53.8813 37.3333 48C37.3333 42.1186 42.1186 37.3333 48 37.3333C51.632 37.3333 54.94 39.148 56.9026 42.1413L48.672 46.8426Z" fill="#EB1131"/>
<path d="M47.3334 44C48.4379 44 49.3334 43.1046 49.3334 42C49.3334 40.8954 48.4379 40 47.3334 40C46.2288 40 45.3334 40.8954 45.3334 42C45.3334 43.1046 46.2288 44 47.3334 44Z" fill="#EB1131"/>
</svg>
