<svg width="97" height="96" viewBox="0 0 97 96" fill="none" xmlns="http://www.w3.org/2000/svg">
<g clip-path="url(#clip0)">
<path fill-rule="evenodd" clip-rule="evenodd" d="M50.1012 0.209746C61.2503 -0.561777 73.1269 0.573249 82.0208 7.37923C97.6138 19.3116 98.1084 55.7784 93.3679 65.7074C82.9899 87.4445 43.0849 105.173 21.7612 90.8006C9.85814 82.7779 14.7179 73.3784 11.1978 64.2815C7.37722 54.4083 -1.7004 45.6914 0.278893 35.2855C3.87273 16.3913 33.163 1.38188 50.1012 0.209746Z" fill="#FEE6EA"/>
<path d="M57.3335 37.3333H53.3335V34.6666H50.6668V37.3333H45.3335V34.6666H42.6668V37.3333H38.6668C37.1961 37.3333 36.0001 38.5293 36.0001 40V58.6666C36.0001 60.1373 37.1961 61.3333 38.6668 61.3333H57.3335C58.8041 61.3333 60.0001 60.1373 60.0001 58.6666V40C60.0001 38.5293 58.8041 37.3333 57.3335 37.3333ZM38.6668 58.6666V41.3333H42.6668H45.3335H50.6668H53.3335H57.3335V40L57.3361 58.6666H38.6668Z" fill="#EB1131"/>
<path d="M41.3335 44H54.6668V46.6667H41.3335V44ZM41.3335 49.3333H48.0002V52H41.3335V49.3333Z" fill="#EB1131"/>
</g>
<defs>
<clipPath id="clip0">
<rect width="96" height="96" fill="white" transform="translate(0.333374)"/>
</clipPath>
</defs>
</svg>
