<svg width="48" height="48" viewBox="0 0 48 48" fill="none" xmlns="http://www.w3.org/2000/svg">
<path d="M30.3334 10.6667H17C15.5294 10.6667 14.3334 11.8627 14.3334 13.3334V34.6667C14.3334 36.1374 15.5294 37.3334 17 37.3334H30.3334C31.804 37.3334 33 36.1374 33 34.6667V13.3334C33 11.8627 31.804 10.6667 30.3334 10.6667ZM17 34.6667V13.3334H30.3334L30.336 34.6667H17Z" fill="#EB1131"/>
<path d="M23.6667 33.3334C24.4031 33.3334 25 32.7365 25 32.0001C25 31.2637 24.4031 30.6667 23.6667 30.6667C22.9303 30.6667 22.3334 31.2637 22.3334 32.0001C22.3334 32.7365 22.9303 33.3334 23.6667 33.3334Z" fill="#EB1131"/>
</svg>
