<svg width="96" height="96" viewBox="0 0 96 96" fill="none" xmlns="http://www.w3.org/2000/svg">
<g clip-path="url(#clip0)">
<path fill-rule="evenodd" clip-rule="evenodd" d="M45.5057 0.306933C36.0452 -0.844795 25.7445 1.20664 18.2934 7.10687C-15.5726 33.9242 -0.0716476 98.551 45.5057 95.9221C72.9032 94.3419 105.033 62.7221 93.6418 31.7647C89.8568 21.4783 80.4732 20.6212 70.6864 15.5671C62.8501 11.5203 54.2733 1.37431 45.5057 0.306933Z" fill="#FEE6EA"/>
<path d="M58.6666 47.9999V45.7239C58.6666 39.8013 54.028 34.8426 48.3266 34.6706C45.388 34.6026 42.6586 35.6519 40.572 37.6786C38.4826 39.7053 37.3333 42.4239 37.3333 45.3333V47.9999C35.8626 47.9999 34.6666 49.1959 34.6666 50.6666V55.9999C34.6666 57.4706 35.8626 58.6666 37.3333 58.6666H40V45.3333C40 43.1506 40.8613 41.1119 42.428 39.5919C43.9933 38.0719 46.0746 37.2733 48.2453 37.3373C52.5226 37.4653 56 41.2279 56 45.7239V58.6666H58.6666C60.1373 58.6666 61.3333 57.4706 61.3333 55.9999V50.6666C61.3333 49.1959 60.1373 47.9999 58.6666 47.9999Z" fill="#EB1131"/>
<path d="M41.3334 48H44V58.6667H41.3334V48ZM52 48H54.6667V58.6667H52V48Z" fill="#EB1131"/>
</g>
<defs>
<clipPath id="clip0">
<rect width="96" height="96" fill="white"/>
</clipPath>
</defs>
</svg>
