<svg width="48" height="48" viewBox="0 0 48 48" fill="none" xmlns="http://www.w3.org/2000/svg">
<path d="M18.6666 24C21.7066 24 24 21.7066 24 18.6666C24 15.6266 21.7066 13.3333 18.6666 13.3333C15.6266 13.3333 13.3333 15.6266 13.3333 18.6666C13.3333 21.7066 15.6266 24 18.6666 24ZM18.6666 16C20.2373 16 21.3333 17.096 21.3333 18.6666C21.3333 20.2373 20.2373 21.3333 18.6666 21.3333C17.096 21.3333 16 20.2373 16 18.6666C16 17.096 17.096 16 18.6666 16ZM20 25.3333H17.3333C13.6573 25.3333 10.6666 28.324 10.6666 32V33.3333H13.3333V32C13.3333 29.7946 15.128 28 17.3333 28H20C22.2053 28 24 29.7946 24 32V33.3333H26.6666V32C26.6666 28.324 23.676 25.3333 20 25.3333ZM32.4853 11.5146L30.6 13.4C32.3613 15.164 33.3333 17.508 33.3333 20C33.3333 22.492 32.3613 24.836 30.6 26.6L32.4853 28.4853C34.752 26.2173 36 23.204 36 20C36 16.796 34.752 13.7826 32.4853 11.5146Z" fill="#EB1131"/>
<path d="M28.7133 15.2854L26.828 17.1734C27.584 17.9267 28 18.9307 28 20.0001C28 21.0694 27.584 22.0734 26.828 22.8267L28.7133 24.7147C29.972 23.4561 30.6667 21.7827 30.6667 20.0001C30.6667 18.2174 29.972 16.5441 28.7133 15.2854Z" fill="#EB1131"/>
</svg>
