<svg width="97" height="96" viewBox="0 0 97 96" fill="none" xmlns="http://www.w3.org/2000/svg">
<g clip-path="url(#clip0)">
<path fill-rule="evenodd" clip-rule="evenodd" d="M44.6239 0.539611C57.4568 2.72538 60.0852 17.0828 69.4906 24.6033C76.9153 30.54 90.1735 31.6523 93.5966 39.698C102.556 60.7569 85.9199 96 52.8103 96C19.7007 96 -3.4728 69.9187 0.428342 35.326C2.922 13.2139 22.4937 -3.22973 44.6239 0.539611Z" fill="#FEE6EA"/>
<path d="M48.0001 34.6666C40.6481 34.6666 34.6667 40.648 34.6667 48C34.6667 55.352 40.6481 61.3333 48.0001 61.3333C55.3521 61.3333 61.3334 55.352 61.3334 48C61.3334 40.648 55.3521 34.6666 48.0001 34.6666ZM48.0001 58.6666C42.1187 58.6666 37.3334 53.8813 37.3334 48C37.3334 42.1186 42.1187 37.3333 48.0001 37.3333C53.8814 37.3333 58.6667 42.1186 58.6667 48C58.6667 53.8813 53.8814 58.6666 48.0001 58.6666Z" fill="#EB1131"/>
<path d="M49.3334 41.3334H46.6667V48.552L51.0574 52.9427L52.9427 51.0574L49.3334 47.448V41.3334Z" fill="#EB1131"/>
</g>
<defs>
<clipPath id="clip0">
<rect width="96" height="96" fill="white" transform="translate(0.333374)"/>
</clipPath>
</defs>
</svg>
