<svg width="97" height="96" viewBox="0 0 97 96" fill="none" xmlns="http://www.w3.org/2000/svg">
<g clip-path="url(#clip0)">
<path fill-rule="evenodd" clip-rule="evenodd" d="M45.9088 95.9014C55.5396 95.175 61.9343 86.0732 70.0105 80.5751C78.6473 74.6954 90.5657 72.4017 94.7988 62.6181C99.1264 52.6164 96.5513 40.3795 91.59 30.7005C87.0544 21.8517 77.132 18.5326 69.2422 12.7589C61.5073 7.09861 55.3667 -0.270432 45.9088 0.00764465C36.4677 0.285217 19.9674 11.4786 12.7684 17.8293C-14.3231 41.7286 8.98349 98.6866 45.9088 95.9014Z" fill="#FEE6EA"/>
<path d="M61.0001 36H51.6667C50.6387 36 49.7094 36.4013 49.0001 37.04C48.2907 36.4013 47.3614 36 46.3334 36H37.0001C36.2627 36 35.6667 36.5973 35.6667 37.3333V57.3333C35.6667 58.0707 36.2627 58.6667 37.0001 58.6667H44.6774C45.3787 58.6667 46.0667 58.952 46.5627 59.448L48.0574 60.9427C48.0694 60.9547 48.0854 60.9587 48.0974 60.9707C48.2121 61.076 48.3401 61.1693 48.4894 61.232C48.4907 61.232 48.4907 61.232 48.4921 61.232C48.6534 61.2987 48.8254 61.3333 49.0001 61.3333C49.1747 61.3333 49.3467 61.2987 49.5081 61.232C49.5094 61.232 49.5094 61.232 49.5107 61.232C49.6601 61.1693 49.7881 61.076 49.9027 60.9707C49.9147 60.9587 49.9307 60.9547 49.9427 60.9427L51.4374 59.448C51.9334 58.952 52.6214 58.6667 53.3227 58.6667H61.0001C61.7374 58.6667 62.3334 58.0707 62.3334 57.3333V37.3333C62.3334 36.5973 61.7374 36 61.0001 36ZM44.6774 56H38.3334V38.6667H46.3334C47.0694 38.6667 47.6667 39.2653 47.6667 40V56.9187C46.7894 56.328 45.7427 56 44.6774 56ZM59.6667 56H53.3227C52.2574 56 51.2107 56.328 50.3334 56.9187V40C50.3334 39.2653 50.9307 38.6667 51.6667 38.6667H59.6667V56Z" fill="#EB1131"/>
</g>
<defs>
<clipPath id="clip0">
<rect width="96" height="96" fill="white" transform="translate(0.666748)"/>
</clipPath>
</defs>
</svg>
