<svg width="48" height="48" viewBox="0 0 48 48" fill="none" xmlns="http://www.w3.org/2000/svg">
<path d="M34.5374 19.4481C34.472 19.3067 34.3907 19.1721 34.276 19.0574L26.276 11.0574C26.1614 10.9427 26.0267 10.8614 25.8854 10.7961C25.8454 10.7774 25.8027 10.7667 25.76 10.7521C25.648 10.7147 25.5334 10.6907 25.4147 10.6841C25.3867 10.6814 25.3614 10.6667 25.3334 10.6667H16C14.5294 10.6667 13.3334 11.8627 13.3334 13.3334V34.6667C13.3334 36.1374 14.5294 37.3334 16 37.3334H32C33.4707 37.3334 34.6667 36.1374 34.6667 34.6667V20.0001C34.6667 19.9721 34.652 19.9467 34.6494 19.9174C34.6427 19.7987 34.62 19.6841 34.5814 19.5721C34.568 19.5294 34.556 19.4881 34.5374 19.4481ZM30.1147 18.6667H26.6667V15.2187L30.1147 18.6667ZM16 34.6667V13.3334H24V20.0001C24 20.7374 24.596 21.3334 25.3334 21.3334H32L32.0027 34.6667H16Z" fill="#EB1131"/>
<path d="M18.6666 24.0001H29.3333V26.6667H18.6666V24.0001ZM18.6666 29.3334H29.3333V32.0001H18.6666V29.3334ZM18.6666 18.6667H21.3333V21.3334H18.6666V18.6667Z" fill="#EB1131"/>
</svg>
