<svg width="97" height="96" viewBox="0 0 97 96" fill="none" xmlns="http://www.w3.org/2000/svg">
<g clip-path="url(#clip0)">
<path fill-rule="evenodd" clip-rule="evenodd" d="M80.8796 6.45791C107.913 22.6709 97.0844 84.0832 76.6532 94.5758C66.9591 99.5543 55.8853 89.9497 44.8897 89.0882C35.2984 88.3367 25.1905 94.2265 16.736 89.8812C4.79316 83.743 -4.31718 62.9301 4.55694 34.6527C13.4311 6.37532 53.8464 -9.75511 80.8796 6.45791Z" fill="#FEE6EA"/>
<path d="M42.3333 46.6666H44.9999V49.3333H42.3333V46.6666ZM42.3333 52H44.9999V54.6666H42.3333V52ZM47.6666 46.6666H50.3333V49.3333H47.6666V46.6666ZM47.6666 52H50.3333V54.6666H47.6666V52ZM52.9999 46.6666H55.6666V49.3333H52.9999V46.6666ZM52.9999 52H55.6666V54.6666H52.9999V52Z" fill="#EB1131"/>
<path d="M39.6667 61.3333H58.3333C59.804 61.3333 61 60.1373 61 58.6666V42.6666V40C61 38.5293 59.804 37.3333 58.3333 37.3333H55.6667V34.6666H53V37.3333H45V34.6666H42.3333V37.3333H39.6667C38.196 37.3333 37 38.5293 37 40V42.6666V58.6666C37 60.1373 38.196 61.3333 39.6667 61.3333ZM58.3333 42.6666L58.3347 58.6666H39.6667V42.6666H58.3333Z" fill="#EB1131"/>
</g>
<defs>
<clipPath id="clip0">
<rect width="96" height="96" fill="white" transform="translate(0.666748)"/>
</clipPath>
</defs>
</svg>
